<?xml version="1.0" encoding="UTF-8"?>
<svg xmlns="http://www.w3.org/2000/svg" version="1.1" width="100" height="100" viewBox="0 0 100 100"><rect x="0" y="0" width="100" height="100" fill="#ffffff"/><g transform="scale(3.448)"><g transform="translate(0,0)"><path fill-rule="evenodd" d="M11 0L11 1L8 1L8 3L9 3L9 4L8 4L8 8L6 8L6 9L4 9L4 8L3 8L3 10L2 10L2 11L1 11L1 12L0 12L0 13L2 13L2 14L3 14L3 15L4 15L4 16L3 16L3 17L2 17L2 18L3 18L3 19L2 19L2 20L3 20L3 21L7 21L7 20L6 20L6 19L8 19L8 23L9 23L9 22L10 22L10 21L9 21L9 19L8 19L8 17L7 17L7 16L8 16L8 15L10 15L10 16L9 16L9 17L10 17L10 16L11 16L11 18L15 18L15 17L16 17L16 16L17 16L17 17L18 17L18 18L19 18L19 17L20 17L20 19L21 19L21 20L19 20L19 21L20 21L20 23L18 23L18 24L16 24L16 23L17 23L17 22L18 22L18 21L17 21L17 20L18 20L18 19L14 19L14 20L12 20L12 19L11 19L11 21L12 21L12 24L13 24L13 25L12 25L12 26L11 26L11 28L12 28L12 29L13 29L13 28L14 28L14 27L15 27L15 26L14 26L14 27L12 27L12 26L13 26L13 25L14 25L14 23L13 23L13 21L14 21L14 20L16 20L16 23L15 23L15 25L18 25L18 24L20 24L20 28L19 28L19 29L22 29L22 26L23 26L23 28L24 28L24 29L25 29L25 28L26 28L26 26L25 26L25 25L26 25L26 24L27 24L27 23L28 23L28 25L29 25L29 23L28 23L28 22L29 22L29 21L27 21L27 20L29 20L29 17L28 17L28 15L29 15L29 14L27 14L27 13L29 13L29 12L28 12L28 10L29 10L29 9L28 9L28 8L26 8L26 9L25 9L25 8L22 8L22 9L21 9L21 8L20 8L20 9L21 9L21 10L18 10L18 12L16 12L16 13L17 13L17 14L18 14L18 15L16 15L16 16L15 16L15 17L13 17L13 16L14 16L14 15L15 15L15 13L14 13L14 9L16 9L16 11L17 11L17 8L19 8L19 6L20 6L20 7L21 7L21 4L20 4L20 5L19 5L19 6L18 6L18 5L17 5L17 4L15 4L15 3L14 3L14 5L13 5L13 4L11 4L11 5L10 5L10 3L9 3L9 2L13 2L13 0ZM15 0L15 2L16 2L16 0ZM18 0L18 1L17 1L17 3L18 3L18 4L19 4L19 3L21 3L21 1L20 1L20 0ZM18 1L18 3L19 3L19 2L20 2L20 1ZM9 5L9 8L8 8L8 10L7 10L7 9L6 9L6 10L7 10L7 11L5 11L5 12L4 12L4 15L5 15L5 16L4 16L4 19L5 19L5 17L6 17L6 18L7 18L7 17L6 17L6 16L7 16L7 15L6 15L6 14L7 14L7 13L8 13L8 14L9 14L9 13L10 13L10 14L12 14L12 16L13 16L13 15L14 15L14 13L13 13L13 14L12 14L12 13L10 13L10 12L9 12L9 11L11 11L11 12L12 12L12 9L13 9L13 8L17 8L17 7L18 7L18 6L17 6L17 7L16 7L16 6L15 6L15 5L14 5L14 6L13 6L13 7L12 7L12 5L11 5L11 8L10 8L10 5ZM14 6L14 7L15 7L15 6ZM0 8L0 9L2 9L2 8ZM11 8L11 9L12 9L12 8ZM9 9L9 10L8 10L8 11L7 11L7 12L6 12L6 13L5 13L5 14L6 14L6 13L7 13L7 12L8 12L8 13L9 13L9 12L8 12L8 11L9 11L9 10L10 10L10 9ZM24 9L24 10L23 10L23 12L24 12L24 15L22 15L22 14L23 14L23 13L22 13L22 12L18 12L18 13L20 13L20 14L19 14L19 15L20 15L20 17L23 17L23 18L22 18L22 20L25 20L25 23L27 23L27 22L26 22L26 20L27 20L27 18L28 18L28 17L27 17L27 15L26 15L26 13L27 13L27 12L26 12L26 13L25 13L25 11L24 11L24 10L25 10L25 9ZM26 9L26 10L28 10L28 9ZM3 10L3 11L4 11L4 10ZM0 15L0 17L1 17L1 16L2 16L2 15ZM21 15L21 16L22 16L22 15ZM24 15L24 16L25 16L25 17L26 17L26 15ZM18 16L18 17L19 17L19 16ZM0 18L0 19L1 19L1 18ZM23 18L23 19L24 19L24 18ZM25 18L25 19L26 19L26 18ZM0 20L0 21L1 21L1 20ZM21 21L21 24L24 24L24 21ZM22 22L22 23L23 23L23 22ZM10 24L10 25L11 25L11 24ZM8 25L8 26L9 26L9 27L8 27L8 29L9 29L9 27L10 27L10 26L9 26L9 25ZM23 25L23 26L24 26L24 25ZM28 26L28 27L27 27L27 29L28 29L28 27L29 27L29 26ZM17 27L17 29L18 29L18 27ZM0 0L0 7L7 7L7 0ZM1 1L1 6L6 6L6 1ZM2 2L2 5L5 5L5 2ZM22 0L22 7L29 7L29 0ZM23 1L23 6L28 6L28 1ZM24 2L24 5L27 5L27 2ZM0 22L0 29L7 29L7 22ZM1 23L1 28L6 28L6 23ZM2 24L2 27L5 27L5 24Z" fill="#000000"/></g></g></svg>
