<?xml version="1.0" encoding="UTF-8"?>
<svg xmlns="http://www.w3.org/2000/svg" version="1.1" width="100" height="100" viewBox="0 0 100 100"><rect x="0" y="0" width="100" height="100" fill="#ffffff"/><g transform="scale(3.448)"><g transform="translate(0,0)"><path fill-rule="evenodd" d="M8 0L8 4L9 4L9 3L10 3L10 5L13 5L13 6L12 6L12 7L13 7L13 6L14 6L14 7L15 7L15 6L14 6L14 5L16 5L16 7L17 7L17 9L16 9L16 8L15 8L15 9L13 9L13 10L14 10L14 12L15 12L15 11L16 11L16 12L17 12L17 13L15 13L15 14L14 14L14 13L13 13L13 11L12 11L12 9L11 9L11 11L10 11L10 13L11 13L11 15L10 15L10 16L8 16L8 15L9 15L9 14L5 14L5 13L7 13L7 12L5 12L5 10L2 10L2 8L0 8L0 9L1 9L1 10L2 10L2 11L4 11L4 13L3 13L3 14L5 14L5 16L3 16L3 15L2 15L2 16L1 16L1 14L2 14L2 13L1 13L1 11L0 11L0 13L1 13L1 14L0 14L0 16L1 16L1 17L0 17L0 18L3 18L3 17L4 17L4 18L6 18L6 19L5 19L5 20L4 20L4 19L3 19L3 20L0 20L0 21L5 21L5 20L6 20L6 21L7 21L7 20L8 20L8 19L7 19L7 18L6 18L6 17L7 17L7 16L8 16L8 17L9 17L9 18L10 18L10 19L9 19L9 20L12 20L12 21L11 21L11 23L8 23L8 25L11 25L11 27L8 27L8 29L10 29L10 28L12 28L12 29L13 29L13 26L14 26L14 27L16 27L16 28L17 28L17 29L18 29L18 27L19 27L19 29L22 29L22 28L24 28L24 29L25 29L25 27L26 27L26 26L27 26L27 29L28 29L28 28L29 28L29 25L28 25L28 24L29 24L29 17L28 17L28 16L29 16L29 13L28 13L28 12L29 12L29 8L25 8L25 9L24 9L24 8L23 8L23 9L22 9L22 10L23 10L23 13L20 13L20 12L19 12L19 11L18 11L18 10L19 10L19 9L20 9L20 10L21 10L21 9L20 9L20 8L19 8L19 6L20 6L20 7L21 7L21 4L20 4L20 3L21 3L21 2L20 2L20 1L19 1L19 0L18 0L18 2L17 2L17 0L15 0L15 1L14 1L14 0L10 0L10 1L9 1L9 0ZM10 1L10 2L11 2L11 4L13 4L13 5L14 5L14 4L13 4L13 3L15 3L15 4L16 4L16 3L17 3L17 5L20 5L20 4L18 4L18 3L17 3L17 2L16 2L16 1L15 1L15 2L13 2L13 1ZM12 2L12 3L13 3L13 2ZM15 2L15 3L16 3L16 2ZM8 5L8 7L9 7L9 8L11 8L11 6L10 6L10 7L9 7L9 5ZM17 6L17 7L18 7L18 6ZM4 8L4 9L7 9L7 10L6 10L6 11L7 11L7 10L10 10L10 9L7 9L7 8ZM18 8L18 9L19 9L19 8ZM23 9L23 10L24 10L24 13L23 13L23 14L24 14L24 13L26 13L26 14L25 14L25 16L24 16L24 15L23 15L23 16L21 16L21 14L20 14L20 13L19 13L19 12L18 12L18 13L17 13L17 14L16 14L16 15L14 15L14 14L13 14L13 13L12 13L12 14L13 14L13 15L12 15L12 16L13 16L13 17L12 17L12 18L13 18L13 19L12 19L12 20L13 20L13 21L12 21L12 23L13 23L13 24L11 24L11 25L12 25L12 26L13 26L13 25L15 25L15 24L14 24L14 23L13 23L13 22L14 22L14 18L13 18L13 17L15 17L15 16L16 16L16 19L17 19L17 18L19 18L19 19L18 19L18 21L17 21L17 20L15 20L15 21L17 21L17 22L16 22L16 23L17 23L17 22L18 22L18 21L19 21L19 22L20 22L20 20L21 20L21 19L22 19L22 20L26 20L26 21L25 21L25 22L27 22L27 23L25 23L25 25L24 25L24 27L25 27L25 25L27 25L27 23L28 23L28 20L27 20L27 19L28 19L28 18L27 18L27 15L28 15L28 14L27 14L27 11L28 11L28 10L24 10L24 9ZM16 10L16 11L17 11L17 10ZM8 11L8 12L9 12L9 11ZM21 11L21 12L22 12L22 11ZM26 14L26 15L27 15L27 14ZM6 15L6 16L5 16L5 17L6 17L6 16L7 16L7 15ZM17 15L17 17L18 17L18 16L19 16L19 17L20 17L20 18L21 18L21 17L20 17L20 16L19 16L19 15ZM2 16L2 17L3 17L3 16ZM10 16L10 18L11 18L11 16ZM25 16L25 17L24 17L24 19L27 19L27 18L25 18L25 17L26 17L26 16ZM22 17L22 18L23 18L23 17ZM6 19L6 20L7 20L7 19ZM8 21L8 22L9 22L9 21ZM21 21L21 24L24 24L24 21ZM22 22L22 23L23 23L23 22ZM19 23L19 24L18 24L18 25L19 25L19 24L20 24L20 23ZM16 24L16 25L17 25L17 24ZM20 25L20 26L19 26L19 27L20 27L20 26L21 26L21 27L23 27L23 25ZM16 26L16 27L18 27L18 26ZM0 0L0 7L7 7L7 0ZM1 1L1 6L6 6L6 1ZM2 2L2 5L5 5L5 2ZM22 0L22 7L29 7L29 0ZM23 1L23 6L28 6L28 1ZM24 2L24 5L27 5L27 2ZM0 22L0 29L7 29L7 22ZM1 23L1 28L6 28L6 23ZM2 24L2 27L5 27L5 24Z" fill="#000000"/></g></g></svg>
