<?xml version="1.0" encoding="UTF-8"?>
<svg xmlns="http://www.w3.org/2000/svg" version="1.1" width="100" height="100" viewBox="0 0 100 100"><rect x="0" y="0" width="100" height="100" fill="#ffffff"/><g transform="scale(3.448)"><g transform="translate(0,0)"><path fill-rule="evenodd" d="M9 0L9 1L8 1L8 2L9 2L9 3L8 3L8 4L10 4L10 3L11 3L11 5L10 5L10 7L11 7L11 8L6 8L6 9L8 9L8 11L9 11L9 12L5 12L5 11L4 11L4 10L5 10L5 8L0 8L0 9L2 9L2 12L1 12L1 11L0 11L0 12L1 12L1 13L3 13L3 15L2 15L2 14L0 14L0 21L1 21L1 17L2 17L2 18L3 18L3 19L4 19L4 18L5 18L5 21L8 21L8 23L9 23L9 24L8 24L8 29L10 29L10 27L11 27L11 26L12 26L12 25L11 25L11 23L10 23L10 22L9 22L9 20L10 20L10 21L11 21L11 22L12 22L12 23L14 23L14 24L13 24L13 25L15 25L15 24L16 24L16 23L17 23L17 21L18 21L18 22L19 22L19 23L20 23L20 27L18 27L18 26L19 26L19 25L18 25L18 24L17 24L17 25L16 25L16 26L14 26L14 27L18 27L18 28L17 28L17 29L18 29L18 28L22 28L22 27L23 27L23 26L24 26L24 27L26 27L26 26L24 26L24 25L28 25L28 26L27 26L27 28L24 28L24 29L27 29L27 28L28 28L28 26L29 26L29 25L28 25L28 24L29 24L29 23L28 23L28 24L25 24L25 23L27 23L27 22L29 22L29 20L28 20L28 19L27 19L27 16L28 16L28 15L27 15L27 12L28 12L28 11L27 11L27 12L25 12L25 9L26 9L26 8L25 8L25 9L24 9L24 8L23 8L23 9L22 9L22 8L20 8L20 9L18 9L18 8L17 8L17 6L18 6L18 7L19 7L19 5L20 5L20 3L21 3L21 0L18 0L18 2L19 2L19 5L17 5L17 4L18 4L18 3L17 3L17 0L16 0L16 1L15 1L15 0L14 0L14 1L15 1L15 3L12 3L12 2L11 2L11 1L13 1L13 0ZM19 1L19 2L20 2L20 1ZM15 3L15 4L14 4L14 5L11 5L11 7L12 7L12 6L13 6L13 8L11 8L11 9L10 9L10 11L11 11L11 12L10 12L10 13L5 13L5 12L4 12L4 11L3 11L3 12L4 12L4 13L5 13L5 14L4 14L4 15L3 15L3 16L2 16L2 17L3 17L3 18L4 18L4 17L5 17L5 16L7 16L7 15L9 15L9 16L8 16L8 17L6 17L6 18L7 18L7 19L6 19L6 20L7 20L7 19L8 19L8 20L9 20L9 19L11 19L11 21L12 21L12 22L13 22L13 21L12 21L12 19L13 19L13 20L14 20L14 22L16 22L16 21L17 21L17 20L18 20L18 21L19 21L19 20L21 20L21 19L22 19L22 18L21 18L21 17L20 17L20 16L21 16L21 14L22 14L22 17L23 17L23 18L24 18L24 19L25 19L25 21L26 21L26 20L27 20L27 19L25 19L25 18L24 18L24 17L26 17L26 16L27 16L27 15L26 15L26 13L25 13L25 12L24 12L24 9L23 9L23 12L22 12L22 13L20 13L20 12L21 12L21 11L22 11L22 10L21 10L21 9L20 9L20 10L19 10L19 11L18 11L18 10L17 10L17 11L15 11L15 12L16 12L16 13L15 13L15 14L16 14L16 13L17 13L17 14L19 14L19 15L17 15L17 16L16 16L16 15L14 15L14 13L12 13L12 14L10 14L10 13L11 13L11 12L14 12L14 10L16 10L16 9L17 9L17 8L16 8L16 6L15 6L15 7L14 7L14 5L16 5L16 4L17 4L17 3ZM8 5L8 7L9 7L9 5ZM20 6L20 7L21 7L21 6ZM13 8L13 9L15 9L15 8ZM27 8L27 9L28 9L28 10L29 10L29 9L28 9L28 8ZM3 9L3 10L4 10L4 9ZM11 9L11 10L12 10L12 11L13 11L13 10L12 10L12 9ZM6 10L6 11L7 11L7 10ZM17 12L17 13L18 13L18 12ZM23 12L23 13L22 13L22 14L23 14L23 13L24 13L24 14L25 14L25 13L24 13L24 12ZM19 13L19 14L20 14L20 13ZM28 13L28 14L29 14L29 13ZM5 14L5 15L7 15L7 14ZM9 14L9 15L10 15L10 16L9 16L9 18L8 18L8 19L9 19L9 18L10 18L10 16L11 16L11 18L12 18L12 17L15 17L15 16L13 16L13 15L12 15L12 16L11 16L11 15L10 15L10 14ZM23 15L23 16L24 16L24 15ZM3 16L3 17L4 17L4 16ZM17 16L17 17L18 17L18 16ZM19 17L19 18L20 18L20 17ZM28 17L28 18L29 18L29 17ZM14 18L14 20L15 20L15 21L16 21L16 19L17 19L17 18ZM18 19L18 20L19 20L19 19ZM2 20L2 21L3 21L3 20ZM21 21L21 24L24 24L24 21ZM22 22L22 23L23 23L23 22ZM22 25L22 26L21 26L21 27L22 27L22 26L23 26L23 25ZM12 28L12 29L16 29L16 28ZM0 0L0 7L7 7L7 0ZM1 1L1 6L6 6L6 1ZM2 2L2 5L5 5L5 2ZM22 0L22 7L29 7L29 0ZM23 1L23 6L28 6L28 1ZM24 2L24 5L27 5L27 2ZM0 22L0 29L7 29L7 22ZM1 23L1 28L6 28L6 23ZM2 24L2 27L5 27L5 24Z" fill="#000000"/></g></g></svg>
